<?xml version="1.0" encoding="utf-8"?>
<!-- Generator: Adobe Illustrator 22.0.1, SVG Export Plug-In . SVG Version: 6.00 Build 0)  -->
<svg version="1.0" id="Layer_1" xmlns="http://www.w3.org/2000/svg" xmlns:xlink="http://www.w3.org/1999/xlink" x="0px" y="0px"
	 viewBox="0 0 13 13" style="enable-background:new 0 0 13 13;" xml:space="preserve">
<style type="text/css">
	.st0{fill:#00DAC7;}
</style>
<path class="st0" d="M10.2,5.3c0-0.1,0-0.2-0.1-0.3L9.5,4.3C9.4,4.2,9.3,4.2,9.1,4.2c-0.1,0-0.2,0-0.3,0.1l-3,3L4.2,5.7
	C4.1,5.6,4,5.5,3.9,5.5c-0.1,0-0.2,0-0.3,0.1L2.9,6.3C2.8,6.4,2.8,6.5,2.8,6.6c0,0.1,0,0.2,0.1,0.3l2.6,2.6c0.1,0.1,0.2,0.1,0.3,0.1
	c0.1,0,0.2,0,0.3-0.1l3.9-3.9C10.2,5.6,10.2,5.5,10.2,5.3z M12.1,6.5c0,1-0.2,1.9-0.7,2.8c-0.5,0.9-1.2,1.5-2,2
	c-0.9,0.5-1.8,0.7-2.8,0.7s-1.9-0.2-2.8-0.7c-0.9-0.5-1.5-1.2-2-2S0.9,7.5,0.9,6.5s0.2-1.9,0.7-2.8s1.2-1.5,2-2s1.8-0.7,2.8-0.7
	s1.9,0.2,2.8,0.7s1.5,1.2,2,2C11.8,4.6,12.1,5.5,12.1,6.5z"/>
</svg>
