<?xml version="1.0" encoding="utf-8"?>
<!-- Generator: Adobe Illustrator 22.0.1, SVG Export Plug-In . SVG Version: 6.00 Build 0)  -->
<svg version="1.1" id="Layer_1" xmlns="http://www.w3.org/2000/svg" xmlns:xlink="http://www.w3.org/1999/xlink" x="0px" y="0px"
	 viewBox="0 0 16 32" style="enable-background:new 0 0 16 32;" xml:space="preserve">
<style type="text/css">
	.st0{fill:#5910DE;}
	.st1{fill:#BC87F4;}
</style>
<g>
	<g id="icon">
		<path class="st0" d="M1.7,14.9h2.6v-2.6H1.7V14.9z M4.9,14.9h2.9v-2.6H4.9V14.9z M1.7,11.7h2.6V8.9H1.7V11.7z M4.9,11.7h2.9V8.9
			H4.9V11.7z M1.7,8.3h2.6V5.7H1.7V8.3z M8.3,14.9h2.9v-2.6H8.3V14.9z M4.9,8.3h2.9V5.7H4.9V8.3z M11.7,14.9h2.6v-2.6h-2.6V14.9z
			 M8.3,11.7h2.9V8.9H8.3V11.7z M5.1,4V1.4c0-0.1,0-0.1-0.1-0.2C5,1.2,4.9,1.1,4.9,1.1H4.3c-0.1,0-0.1,0-0.2,0.1C4,1.3,4,1.4,4,1.4
			V4c0,0.1,0,0.1,0.1,0.2s0.1,0.1,0.2,0.1h0.6c0.1,0,0.1,0,0.2-0.1C5.1,4.1,5.1,4.1,5.1,4z M11.7,11.7h2.6V8.9h-2.6V11.7z M8.3,8.3
			h2.9V5.7H8.3V8.3z M11.7,8.3h2.6V5.7h-2.6V8.3z M12,4V1.4c0-0.1,0-0.1-0.1-0.2c-0.1-0.1-0.1-0.1-0.2-0.1h-0.6
			c-0.1,0-0.1,0-0.2,0.1c-0.1,0.1-0.1,0.1-0.1,0.2V4c0,0.1,0,0.1,0.1,0.2s0.1,0.1,0.2,0.1h0.6c0.1,0,0.1,0,0.2-0.1S12,4.1,12,4z
			 M15.4,3.4v11.4c0,0.3-0.1,0.6-0.3,0.8c-0.2,0.2-0.5,0.3-0.8,0.3H1.7c-0.3,0-0.6-0.1-0.8-0.3s-0.3-0.5-0.3-0.8V3.4
			c0-0.3,0.1-0.6,0.3-0.8s0.5-0.3,0.8-0.3h1.1V1.4c0-0.4,0.1-0.7,0.4-1S3.9,0,4.3,0h0.6c0.4,0,0.7,0.1,1,0.4s0.4,0.6,0.4,1v0.9h3.4
			V1.4c0-0.4,0.1-0.7,0.4-1s0.6-0.4,1-0.4h0.6c0.4,0,0.7,0.1,1,0.4s0.4,0.6,0.4,1v0.9h1.1c0.3,0,0.6,0.1,0.8,0.3
			C15.3,2.9,15.4,3.1,15.4,3.4z"/>
	</g>
</g>
<g>
	<g id="icon_1_">
		<path class="st1" d="M1.7,30.9h2.6v-2.6H1.7V30.9z M4.9,30.9h2.9v-2.6H4.9V30.9z M1.7,27.7h2.6v-2.9H1.7V27.7z M4.9,27.7h2.9v-2.9
			H4.9V27.7z M1.7,24.3h2.6v-2.6H1.7V24.3z M8.3,30.9h2.9v-2.6H8.3V30.9z M4.9,24.3h2.9v-2.6H4.9V24.3z M11.7,30.9h2.6v-2.6h-2.6
			V30.9z M8.3,27.7h2.9v-2.9H8.3V27.7z M5.1,20v-2.6c0-0.1,0-0.1-0.1-0.2c-0.1-0.1-0.1-0.1-0.2-0.1H4.3c-0.1,0-0.1,0-0.2,0.1
			S4,17.4,4,17.4V20c0,0.1,0,0.1,0.1,0.2c0.1,0.1,0.1,0.1,0.2,0.1h0.6c0.1,0,0.1,0,0.2-0.1C5.1,20.1,5.1,20.1,5.1,20z M11.7,27.7
			h2.6v-2.9h-2.6V27.7z M8.3,24.3h2.9v-2.6H8.3V24.3z M11.7,24.3h2.6v-2.6h-2.6V24.3z M12,20v-2.6c0-0.1,0-0.1-0.1-0.2
			s-0.1-0.1-0.2-0.1h-0.6c-0.1,0-0.1,0-0.2,0.1s-0.1,0.1-0.1,0.2V20c0,0.1,0,0.1,0.1,0.2c0.1,0.1,0.1,0.1,0.2,0.1h0.6
			c0.1,0,0.1,0,0.2-0.1C12,20.1,12,20.1,12,20z M15.4,19.4v11.4c0,0.3-0.1,0.6-0.3,0.8c-0.2,0.2-0.5,0.3-0.8,0.3H1.7
			c-0.3,0-0.6-0.1-0.8-0.3s-0.3-0.5-0.3-0.8V19.4c0-0.3,0.1-0.6,0.3-0.8s0.5-0.3,0.8-0.3h1.1v-0.9c0-0.4,0.1-0.7,0.4-1
			c0.3-0.3,0.6-0.4,1-0.4h0.6c0.4,0,0.7,0.1,1,0.4c0.3,0.3,0.4,0.6,0.4,1v0.9h3.4v-0.9c0-0.4,0.1-0.7,0.4-1c0.3-0.3,0.6-0.4,1-0.4
			h0.6c0.4,0,0.7,0.1,1,0.4c0.3,0.3,0.4,0.6,0.4,1v0.9h1.1c0.3,0,0.6,0.1,0.8,0.3C15.3,18.9,15.4,19.1,15.4,19.4z"/>
	</g>
</g>
</svg>
