<?xml version="1.0" encoding="utf-8"?>
<!-- Generator: Adobe Illustrator 22.0.1, SVG Export Plug-In . SVG Version: 6.00 Build 0)  -->
<svg version="1.1" id="Layer_1" xmlns="http://www.w3.org/2000/svg" xmlns:xlink="http://www.w3.org/1999/xlink" x="0px" y="0px"
	 viewBox="0 0 13 13" style="enable-background:new 0 0 13 13;" xml:space="preserve">
<style type="text/css">
	.st0{fill:#5910DE;}
</style>
<path class="st0" d="M3.6,11.1l0.7-0.7L2.5,8.8L1.9,9.4v0.8h0.9v0.9H3.6z M7.4,4.4c0-0.1-0.1-0.2-0.2-0.2c0,0-0.1,0-0.1,0.1L3.1,8.2
	c0,0-0.1,0.1-0.1,0.1c0,0.1,0.1,0.2,0.2,0.2c0,0,0.1,0,0.1-0.1l3.9-3.9C7.3,4.5,7.4,4.5,7.4,4.4z M7,3l3,3l-6,6h-3v-3L7,3z
	 M11.9,3.7c0,0.3-0.1,0.5-0.3,0.7l-1.2,1.2l-3-3l1.2-1.2C8.8,1.2,9,1.1,9.3,1.1c0.3,0,0.5,0.1,0.7,0.3l1.7,1.7
	C11.8,3.2,11.9,3.5,11.9,3.7z"/>
</svg>
