<?xml version="1.0" encoding="utf-8"?>
<!-- Generator: Adobe Illustrator 22.0.1, SVG Export Plug-In . SVG Version: 6.00 Build 0)  -->
<svg version="1.1" id="Layer_1" xmlns="http://www.w3.org/2000/svg" xmlns:xlink="http://www.w3.org/1999/xlink" x="0px" y="0px"
	 viewBox="0 0 16 32" style="enable-background:new 0 0 16 32;" xml:space="preserve">
<style type="text/css">
	.st0{fill:#5910DE;}
	.st1{fill:#BC87F4;}
</style>
<g>
	<g id="icon">
		<path class="st0" d="M9.1,4.9v4c0,0.1,0,0.2-0.1,0.2C9,9.1,8.9,9.1,8.9,9.1H6c-0.1,0-0.2,0-0.2-0.1C5.7,9,5.7,8.9,5.7,8.9V8.3
			c0-0.1,0-0.2,0.1-0.2C5.8,8,5.9,8,6,8h2V4.9c0-0.1,0-0.2,0.1-0.2c0.1-0.1,0.1-0.1,0.2-0.1h0.6c0.1,0,0.2,0,0.2,0.1
			C9.1,4.7,9.1,4.8,9.1,4.9z M12.9,8c0-0.9-0.2-1.7-0.7-2.4s-1-1.3-1.8-1.8C9.7,3.4,8.9,3.1,8,3.1S6.3,3.4,5.6,3.8s-1.3,1-1.8,1.8
			C3.4,6.3,3.1,7.1,3.1,8s0.2,1.7,0.7,2.4c0.4,0.7,1,1.3,1.8,1.8s1.6,0.7,2.4,0.7s1.7-0.2,2.4-0.7c0.7-0.4,1.3-1,1.8-1.8
			C12.6,9.7,12.9,8.9,12.9,8z M14.9,8c0,1.2-0.3,2.4-0.9,3.4c-0.6,1.1-1.4,1.9-2.5,2.5c-1.1,0.6-2.2,0.9-3.4,0.9s-2.4-0.3-3.4-0.9
			c-1.1-0.6-1.9-1.4-2.5-2.5S1.1,9.2,1.1,8s0.3-2.4,0.9-3.4s1.4-1.9,2.5-2.5S6.8,1.1,8,1.1s2.4,0.3,3.4,0.9s1.9,1.4,2.5,2.5
			C14.6,5.6,14.9,6.8,14.9,8z"/>
	</g>
</g>
<g>
	<g id="icon_1_">
		<path class="st1" d="M9.1,20.9v4c0,0.1,0,0.2-0.1,0.2c-0.1,0.1-0.1,0.1-0.2,0.1H6c-0.1,0-0.2,0-0.2-0.1c-0.1-0.1-0.1-0.1-0.1-0.2
			v-0.6c0-0.1,0-0.2,0.1-0.2C5.8,24,5.9,24,6,24h2v-3.1c0-0.1,0-0.2,0.1-0.2c0.1-0.1,0.1-0.1,0.2-0.1h0.6c0.1,0,0.2,0,0.2,0.1
			C9.1,20.7,9.1,20.8,9.1,20.9z M12.9,24c0-0.9-0.2-1.7-0.7-2.4s-1-1.3-1.8-1.8c-0.7-0.4-1.6-0.7-2.4-0.7s-1.7,0.2-2.4,0.7
			c-0.7,0.4-1.3,1-1.8,1.8c-0.4,0.7-0.7,1.6-0.7,2.4s0.2,1.7,0.7,2.4c0.4,0.7,1,1.3,1.8,1.8c0.7,0.4,1.6,0.7,2.4,0.7
			s1.7-0.2,2.4-0.7c0.7-0.4,1.3-1,1.8-1.8C12.6,25.7,12.9,24.9,12.9,24z M14.9,24c0,1.2-0.3,2.4-0.9,3.4c-0.6,1.1-1.4,1.9-2.5,2.5
			S9.2,30.9,8,30.9s-2.4-0.3-3.4-0.9s-1.9-1.4-2.5-2.5c-0.6-1.1-0.9-2.2-0.9-3.4s0.3-2.4,0.9-3.4c0.6-1.1,1.4-1.9,2.5-2.5
			c1.1-0.6,2.2-0.9,3.4-0.9s2.4,0.3,3.4,0.9c1.1,0.6,1.9,1.4,2.5,2.5C14.6,21.6,14.9,22.8,14.9,24z"/>
	</g>
</g>
</svg>
