<?xml version="1.0" encoding="utf-8"?>
<!-- Generator: Adobe Illustrator 22.0.1, SVG Export Plug-In . SVG Version: 6.00 Build 0)  -->
<svg version="1.0" id="Layer_1" xmlns="http://www.w3.org/2000/svg" xmlns:xlink="http://www.w3.org/1999/xlink" x="0px" y="0px"
	 viewBox="0 0 13 13" style="enable-background:new 0 0 13 13;" xml:space="preserve">
<style type="text/css">
	.st0{fill:#B00024;}
</style>
<path class="st0" d="M9.3,8.1c0-0.1,0-0.2-0.1-0.3L7.8,6.5l1.3-1.3C9.2,5.1,9.3,5,9.3,4.9c0-0.1,0-0.2-0.1-0.3L8.5,3.9
	C8.4,3.8,8.3,3.7,8.1,3.7c-0.1,0-0.2,0-0.3,0.1L6.5,5.2L5.2,3.9C5.1,3.8,5,3.7,4.9,3.7c-0.1,0-0.2,0-0.3,0.1L3.9,4.5
	C3.8,4.6,3.7,4.7,3.7,4.9c0,0.1,0,0.2,0.1,0.3l1.3,1.3L3.9,7.8C3.8,7.9,3.7,8,3.7,8.1c0,0.1,0,0.2,0.1,0.3l0.7,0.7
	c0.1,0.1,0.2,0.1,0.3,0.1c0.1,0,0.2,0,0.3-0.1l1.3-1.3l1.3,1.3C7.9,9.2,8,9.3,8.1,9.3c0.1,0,0.2,0,0.3-0.1l0.7-0.7
	C9.2,8.4,9.3,8.3,9.3,8.1z M12.1,6.5c0,1-0.2,1.9-0.7,2.8c-0.5,0.9-1.2,1.5-2,2c-0.9,0.5-1.8,0.7-2.8,0.7s-1.9-0.2-2.8-0.7
	c-0.9-0.5-1.5-1.2-2-2S0.9,7.5,0.9,6.5s0.2-1.9,0.7-2.8s1.2-1.5,2-2s1.8-0.7,2.8-0.7s1.9,0.2,2.8,0.7s1.5,1.2,2,2
	C11.8,4.6,12.1,5.5,12.1,6.5z"/>
</svg>
